# xmcd
#
# Track frame offsets:
#	150
#	20187
#	34582
#	47617
#	62245
#	76325
#	90505
#	103630
#	117625
#	130970
#	147262
#	160625
#
# Disc length: 2336 seconds
#
# Revision: 0
# Processed by: cddbd v1.5.2PL0 Copyright (c) Steve Scherf et al.
# Submitted via: audiograbber 1.83.01
#
DISCID=9e091e0c
DTITLE=Hatmut Schulze Gerlach - Wir müßten mal wieder zusammen sitzen
DYEAR=1993
DGENRE=Country
TTITLE0=Hartmut Schulze - Gerlach - Wir müßten mal wieder zusammen sitzen
TTITLE1=Hartmut Schulze - Gerlach - Jamie
TTITLE2=Hartmut Schulze - Gerlach - Living as A Country Boy
TTITLE3=Hartmut Schulze - Gerlach - Die Mädchen von Radebeul
TTITLE4=Hartmut Schulze - Gerlach - Ready To Go
TTITLE5=Hartmut Schulze - Gerlach - Hey Missis
TTITLE6=Hartmut Schulze - Gerlach - All Over My Heart (Deutsche Version )
TTITLE7=Hartmut Schulze - Gerlach - Lady in Weiß
TTITLE8=Hartmut Schulze - Gerlach - Angie - Like Droopin' Flowers
TTITLE9=Hartmut Schulze - Gerlach - This Time
TTITLE10=Hartmut Schulze - Gerlach - All Over My Heart ( Englische Version )
TTITLE11=Hartmut Schulze - Gerlach - I'm Legitimate
EXTD=
EXTT0=
EXTT1=
EXTT2=
EXTT3=
EXTT4=
EXTT5=
EXTT6=
EXTT7=
EXTT8=
EXTT9=
EXTT10=
EXTT11=
PLAYORDER=
